<mxfile host="Electron" agent="Mozilla/5.0 (Macintosh; Intel Mac OS X 10_15_7) AppleWebKit/537.36 (KHTML, like Gecko) draw.io/24.7.5 Chrome/126.0.6478.183 Electron/31.3.0 Safari/537.36" version="24.7.5">
  <diagram name="Page-1" id="3zsgYUhHG5c0nEzjc_Vt">
    <mxGraphModel dx="4350" dy="1790" grid="1" gridSize="10" guides="1" tooltips="1" connect="1" arrows="1" fold="1" page="1" pageScale="1" pageWidth="1600" pageHeight="1200" math="0" shadow="0">
      <root>
        <mxCell id="0" />
        <mxCell id="1" parent="0" />
        <mxCell id="EyGYqPtxOf0bMZwlp0L7-30" value="" style="rounded=0;whiteSpace=wrap;html=1;strokeWidth=3;" vertex="1" parent="1">
          <mxGeometry x="-1570" y="40" width="710" height="440" as="geometry" />
        </mxCell>
        <mxCell id="EyGYqPtxOf0bMZwlp0L7-1" value="&lt;b&gt;Imminent and Existing Zone Violation Reporter&lt;/b&gt;" style="rounded=0;whiteSpace=wrap;html=1;strokeWidth=3;fillColor=#dae8fc;strokeColor=#6c8ebf;spacingLeft=10;spacingRight=10;spacingBottom=10;spacingTop=10;spacing=10;" vertex="1" parent="1">
          <mxGeometry x="-1519.37" y="321.8600000000006" width="130" height="70" as="geometry" />
        </mxCell>
        <mxCell id="EyGYqPtxOf0bMZwlp0L7-31" style="edgeStyle=orthogonalEdgeStyle;rounded=0;orthogonalLoop=1;jettySize=auto;html=1;exitX=1;exitY=0.5;exitDx=0;exitDy=0;endArrow=none;endFill=0;" edge="1" parent="1" source="EyGYqPtxOf0bMZwlp0L7-2" target="EyGYqPtxOf0bMZwlp0L7-8">
          <mxGeometry relative="1" as="geometry">
            <Array as="points">
              <mxPoint x="-810" y="357" />
              <mxPoint x="-810" y="387" />
            </Array>
          </mxGeometry>
        </mxCell>
        <mxCell id="EyGYqPtxOf0bMZwlp0L7-32" style="edgeStyle=orthogonalEdgeStyle;rounded=0;orthogonalLoop=1;jettySize=auto;html=1;exitX=1;exitY=0.5;exitDx=0;exitDy=0;entryX=0;entryY=0.5;entryDx=0;entryDy=0;endArrow=none;endFill=0;" edge="1" parent="1" source="EyGYqPtxOf0bMZwlp0L7-2" target="EyGYqPtxOf0bMZwlp0L7-9">
          <mxGeometry relative="1" as="geometry">
            <Array as="points">
              <mxPoint x="-810" y="357" />
              <mxPoint x="-810" y="130" />
            </Array>
          </mxGeometry>
        </mxCell>
        <mxCell id="EyGYqPtxOf0bMZwlp0L7-2" value="&lt;span style=&quot;font-size: 10px;&quot;&gt;Report imminent (will occur) and existing (is currently occurring) Zone Violations to clients&lt;/span&gt;" style="ellipse;whiteSpace=wrap;html=1;dashed=1;spacing=12;fillColor=#dae8fc;strokeColor=#6c8ebf;" vertex="1" parent="1">
          <mxGeometry x="-1342.5" y="317.72000000000025" width="170" height="78.29" as="geometry" />
        </mxCell>
        <mxCell id="EyGYqPtxOf0bMZwlp0L7-3" style="rounded=0;orthogonalLoop=1;jettySize=auto;html=1;exitX=1;exitY=0.5;exitDx=0;exitDy=0;endArrow=none;endFill=0;entryX=0;entryY=0.5;entryDx=0;entryDy=0;dashed=1;" edge="1" parent="1" source="EyGYqPtxOf0bMZwlp0L7-1" target="EyGYqPtxOf0bMZwlp0L7-2">
          <mxGeometry relative="1" as="geometry">
            <mxPoint x="-1430.37" y="349" as="sourcePoint" />
            <mxPoint x="-1379.37" y="349" as="targetPoint" />
          </mxGeometry>
        </mxCell>
        <mxCell id="EyGYqPtxOf0bMZwlp0L7-4" value="Existing&lt;div&gt;Zone&lt;/div&gt;&lt;div&gt;Violations&lt;/div&gt;" style="rounded=0;whiteSpace=wrap;html=1;strokeWidth=1;spacingLeft=10;spacingRight=10;spacingBottom=10;spacingTop=10;spacing=10;" vertex="1" parent="1">
          <mxGeometry x="-1120" y="210" width="100.63" height="50" as="geometry" />
        </mxCell>
        <mxCell id="EyGYqPtxOf0bMZwlp0L7-5" value="" style="endArrow=none;html=1;rounded=0;exitX=1.003;exitY=0.421;exitDx=0;exitDy=0;entryX=0.5;entryY=1;entryDx=0;entryDy=0;dashed=1;exitPerimeter=0;" edge="1" parent="1" source="EyGYqPtxOf0bMZwlp0L7-2" target="EyGYqPtxOf0bMZwlp0L7-4">
          <mxGeometry width="50" height="50" relative="1" as="geometry">
            <mxPoint x="-1209.37" y="349" as="sourcePoint" />
            <mxPoint x="-1160.37" y="269" as="targetPoint" />
          </mxGeometry>
        </mxCell>
        <mxCell id="EyGYqPtxOf0bMZwlp0L7-6" value="Imminent&lt;div&gt;Zone Violations&lt;/div&gt;" style="rounded=0;whiteSpace=wrap;html=1;strokeWidth=1;spacingLeft=10;spacingRight=10;spacingBottom=10;spacingTop=10;spacing=10;" vertex="1" parent="1">
          <mxGeometry x="-1325.31" y="210" width="100.63" height="45.01" as="geometry" />
        </mxCell>
        <mxCell id="EyGYqPtxOf0bMZwlp0L7-7" value="" style="endArrow=none;html=1;rounded=0;exitX=0.5;exitY=0;exitDx=0;exitDy=0;entryX=0.5;entryY=1;entryDx=0;entryDy=0;dashed=1;" edge="1" parent="1" source="EyGYqPtxOf0bMZwlp0L7-2" target="EyGYqPtxOf0bMZwlp0L7-6">
          <mxGeometry width="50" height="50" relative="1" as="geometry">
            <mxPoint x="-1209.37" y="255" as="sourcePoint" />
            <mxPoint x="-1160.37" y="269" as="targetPoint" />
          </mxGeometry>
        </mxCell>
        <mxCell id="EyGYqPtxOf0bMZwlp0L7-8" value="&lt;b style=&quot;forced-color-adjust: none; color: rgb(0, 0, 0); font-family: Helvetica; font-size: 12px; font-style: normal; font-variant-ligatures: normal; font-variant-caps: normal; letter-spacing: normal; orphans: 2; text-indent: 0px; text-transform: none; widows: 2; word-spacing: 0px; -webkit-text-stroke-width: 0px; white-space: normal; text-decoration-thickness: initial; text-decoration-style: initial; text-decoration-color: initial; background-color: rgb(251, 251, 251);&quot;&gt;Desired World: Correctly Detect Existing and Imminent Zone Violations&lt;/b&gt;&lt;div style=&quot;&quot;&gt;&lt;div style=&quot;font-size: 12px; forced-color-adjust: none; color: rgb(0, 0, 0); font-family: Helvetica; font-style: normal; font-variant-ligatures: normal; font-variant-caps: normal; font-weight: 400; letter-spacing: normal; orphans: 2; text-indent: 0px; text-transform: none; widows: 2; word-spacing: 0px; -webkit-text-stroke-width: 0px; white-space: normal; text-decoration-thickness: initial; text-decoration-style: initial; text-decoration-color: initial; background-color: rgb(251, 251, 251);&quot;&gt;&lt;span style=&quot;forced-color-adjust: none; font-size: 12px; background-color: initial;&quot;&gt;&lt;span style=&quot;forced-color-adjust: none; background-color: initial;&quot;&gt;&lt;font style=&quot;forced-color-adjust: none; font-size: 10px;&quot;&gt;Given a Mission M with&amp;nbsp;&lt;/font&gt;&lt;/span&gt;&lt;font style=&quot;forced-color-adjust: none; background-color: initial; font-size: 10px;&quot;&gt;vehicle set V&lt;sub&gt;S&lt;/sub&gt;, and zone set Z&lt;sub&gt;S&lt;/sub&gt;&amp;nbsp;&lt;/font&gt;&lt;/span&gt;&lt;/div&gt;&lt;div style=&quot;font-size: 12px; forced-color-adjust: none; color: rgb(0, 0, 0); font-family: Helvetica; font-variant-ligatures: normal; font-variant-caps: normal; font-weight: 400; letter-spacing: normal; orphans: 2; text-indent: 0px; text-transform: none; widows: 2; word-spacing: 0px; -webkit-text-stroke-width: 0px; white-space: normal; text-decoration-thickness: initial; text-decoration-style: initial; text-decoration-color: initial; background-color: rgb(251, 251, 251);&quot;&gt;&lt;span style=&quot;font-style: normal; forced-color-adjust: none; font-size: 12px; background-color: initial;&quot;&gt;&lt;font style=&quot;forced-color-adjust: none; font-size: 14px;&quot;&gt;∀&lt;/font&gt;&lt;font style=&quot;forced-color-adjust: none; font-size: 10px;&quot;&gt;&amp;nbsp;time T&lt;sub style=&quot;forced-color-adjust: none;&quot;&gt;V&amp;nbsp;&lt;/sub&gt;&lt;/font&gt;&lt;/span&gt;&lt;span style=&quot;font-size: 10px; background-color: initial;&quot;&gt;∈ { T | during(M,T) }, V&amp;nbsp;&lt;/span&gt;&lt;span style=&quot;font-size: 10px; background-color: initial;&quot;&gt;∈&lt;/span&gt;&lt;span style=&quot;background-color: initial; font-size: 10px;&quot;&gt;V&lt;sub&gt;S&lt;/sub&gt;, Z&amp;nbsp;&lt;/span&gt;&lt;span style=&quot;font-size: 10px; background-color: initial;&quot;&gt;∈&amp;nbsp;&lt;/span&gt;&lt;span style=&quot;background-color: initial; font-size: 10px;&quot;&gt;Z&lt;sub&gt;S&lt;/sub&gt; :&lt;/span&gt;&lt;/div&gt;&lt;div style=&quot;font-size: 10px; forced-color-adjust: none; color: rgb(0, 0, 0); font-family: Helvetica; font-style: normal; font-variant-ligatures: normal; font-variant-caps: normal; font-weight: 400; letter-spacing: normal; orphans: 2; text-indent: 0px; text-transform: none; widows: 2; word-spacing: 0px; -webkit-text-stroke-width: 0px; white-space: normal; text-decoration-thickness: initial; text-decoration-style: initial; text-decoration-color: initial; background-color: rgb(251, 251, 251);&quot;&gt;&lt;span style=&quot;forced-color-adjust: none; background-color: initial;&quot;&gt;&amp;nbsp; &amp;nbsp; &amp;nbsp; [ ~vehicleViolatesZoneAtTime(V,Z,T&lt;sub&gt;V&lt;/sub&gt;)&amp;nbsp;&amp;nbsp;&lt;/span&gt;&lt;/div&gt;&lt;div style=&quot;font-size: 10px; forced-color-adjust: none; color: rgb(0, 0, 0); font-family: Helvetica; font-style: normal; font-variant-ligatures: normal; font-variant-caps: normal; font-weight: 400; letter-spacing: normal; orphans: 2; text-indent: 0px; text-transform: none; widows: 2; word-spacing: 0px; -webkit-text-stroke-width: 0px; white-space: normal; text-decoration-thickness: initial; text-decoration-style: initial; text-decoration-color: initial; background-color: rgb(251, 251, 251);&quot;&gt;&lt;span style=&quot;forced-color-adjust: none; background-color: initial;&quot;&gt;&amp;nbsp; &amp;nbsp; &amp;nbsp; &amp;nbsp; &amp;amp;&amp;amp;&amp;nbsp;&lt;/span&gt;&lt;/div&gt;&lt;div style=&quot;font-size: 12px;&quot;&gt;&lt;span style=&quot;background-color: initial;&quot;&gt;&lt;font style=&quot;font-size: 14px;&quot;&gt;&amp;nbsp; &amp;nbsp; &amp;nbsp;&amp;nbsp;&lt;/font&gt;&lt;/span&gt;&lt;font style=&quot;background-color: initial; font-size: 10px;&quot;&gt;&lt;span style=&quot;font-size: 14px;&quot;&gt;∀&lt;/span&gt;&amp;nbsp;&lt;/font&gt;&lt;span style=&quot;background-color: initial;&quot;&gt;&lt;font style=&quot;font-size: 10px;&quot;&gt;T&lt;sub&gt;R&lt;/sub&gt;&amp;nbsp;&lt;/font&gt;&lt;/span&gt;&lt;span style=&quot;font-size: 10px; background-color: initial;&quot;&gt;∈ { T | during(M,T) }&amp;nbsp;&lt;/span&gt;&lt;span style=&quot;background-color: initial; font-size: 10px;&quot;&gt;:&amp;nbsp;&lt;/span&gt;&lt;span style=&quot;background-color: initial; font-size: 10px;&quot;&gt;&amp;nbsp;~&lt;/span&gt;&lt;span style=&quot;background-color: initial; font-size: 10px;&quot;&gt;detectedVehicleZoneViolationAtTime(V,Z,T&lt;/span&gt;&lt;sub style=&quot;background-color: initial;&quot;&gt;V&lt;/sub&gt;&lt;span style=&quot;background-color: initial; font-size: 10px;&quot;&gt;, T&lt;/span&gt;&lt;sub style=&quot;background-color: initial;&quot;&gt;R&lt;/sub&gt;&lt;span style=&quot;background-color: initial; font-size: 10px;&quot;&gt;)&lt;/span&gt;&lt;span style=&quot;background-color: initial; font-size: 10px;&quot;&gt;&amp;nbsp; ]&amp;nbsp;&lt;/span&gt;&lt;/div&gt;&lt;div style=&quot;font-size: 10px; forced-color-adjust: none; color: rgb(0, 0, 0); font-family: Helvetica; font-style: normal; font-variant-ligatures: normal; font-variant-caps: normal; font-weight: 400; letter-spacing: normal; orphans: 2; text-indent: 0px; text-transform: none; widows: 2; word-spacing: 0px; -webkit-text-stroke-width: 0px; white-space: normal; text-decoration-thickness: initial; text-decoration-style: initial; text-decoration-color: initial; background-color: rgb(251, 251, 251);&quot;&gt;&lt;span style=&quot;forced-color-adjust: none; background-color: initial;&quot;&gt;&amp;nbsp; &amp;nbsp; &amp;nbsp; ||&amp;nbsp;&lt;/span&gt;&lt;/div&gt;&lt;div style=&quot;forced-color-adjust: none; color: rgb(0, 0, 0); font-family: Helvetica; font-style: normal; font-variant-ligatures: normal; font-variant-caps: normal; font-weight: 400; letter-spacing: normal; orphans: 2; text-indent: 0px; text-transform: none; widows: 2; word-spacing: 0px; -webkit-text-stroke-width: 0px; white-space: normal; text-decoration-thickness: initial; text-decoration-style: initial; text-decoration-color: initial; background-color: rgb(251, 251, 251);&quot;&gt;&lt;span style=&quot;forced-color-adjust: none; background-color: initial;&quot;&gt;&lt;div style=&quot;font-size: 14px;&quot;&gt;&lt;span style=&quot;background-color: initial;&quot;&gt;&lt;font style=&quot;font-size: 10px;&quot;&gt;&amp;nbsp; &amp;nbsp; &amp;nbsp; [&amp;nbsp;&lt;/font&gt;&lt;/span&gt;&lt;span style=&quot;background-color: initial; font-size: 10px;&quot;&gt;vehicleViolatesZoneAtTime(V,Z,T&lt;/span&gt;&lt;sub style=&quot;background-color: initial;&quot;&gt;V&lt;/sub&gt;&lt;span style=&quot;background-color: initial; font-size: 10px;&quot;&gt;)&amp;nbsp;&lt;/span&gt;&lt;/div&gt;&lt;div style=&quot;font-size: 14px;&quot;&gt;&lt;span style=&quot;background-color: initial; font-size: 10px;&quot;&gt;&amp;nbsp; &amp;nbsp; &amp;nbsp; &amp;nbsp; &amp;amp;&amp;amp;&lt;/span&gt;&lt;/div&gt;&lt;div style=&quot;font-size: 14px;&quot;&gt;&lt;span style=&quot;background-color: initial;&quot;&gt;&lt;font style=&quot;font-size: 14px;&quot;&gt;&amp;nbsp; &amp;nbsp; &amp;nbsp; &amp;nbsp;∃&lt;/font&gt;&lt;/span&gt;&lt;font style=&quot;background-color: initial; font-size: 14px;&quot;&gt;&amp;nbsp;&lt;/font&gt;&lt;span style=&quot;background-color: initial;&quot;&gt;&lt;font style=&quot;font-size: 10px;&quot;&gt;T&lt;sub&gt;R&lt;/sub&gt;&amp;nbsp;&lt;/font&gt;&lt;/span&gt;&lt;span style=&quot;background-color: initial; font-size: 10px;&quot;&gt;∈&amp;nbsp;&lt;/span&gt;&lt;span style=&quot;background-color: initial; font-size: 10px;&quot;&gt;{ T | during(M,T) } where T&lt;sub&gt;R&lt;/sub&gt;&amp;nbsp;&amp;lt;= T&lt;sub&gt;V&lt;/sub&gt;&amp;nbsp;:&lt;/span&gt;&lt;/div&gt;&lt;div style=&quot;&quot;&gt;&lt;span style=&quot;font-size: 14px; background-color: initial;&quot;&gt;&lt;font style=&quot;font-size: 10px;&quot;&gt;&amp;nbsp; &amp;nbsp; &amp;nbsp; &amp;nbsp; &amp;nbsp; &amp;nbsp; &amp;nbsp; &amp;nbsp;&lt;/font&gt;&lt;/span&gt;&lt;span style=&quot;font-size: 10px; background-color: initial;&quot;&gt;detectedVehicleZoneViolationAtTime(V,Z,T&lt;/span&gt;&lt;span style=&quot;background-color: initial; font-size: 11.6667px;&quot;&gt;&lt;sub&gt;V&lt;/sub&gt;&lt;/span&gt;&lt;span style=&quot;font-size: 10px; background-color: initial;&quot;&gt;, T&lt;sub&gt;R&lt;/sub&gt;&lt;/span&gt;&lt;span style=&quot;font-size: 10px; background-color: initial;&quot;&gt;) ]&lt;/span&gt;&lt;/div&gt;&lt;/span&gt;&lt;/div&gt;&lt;div style=&quot;font-size: 10px; forced-color-adjust: none; color: rgb(0, 0, 0); font-family: Helvetica; font-style: normal; font-variant-ligatures: normal; font-variant-caps: normal; font-weight: 400; letter-spacing: normal; orphans: 2; text-indent: 0px; text-transform: none; widows: 2; word-spacing: 0px; -webkit-text-stroke-width: 0px; white-space: normal; text-decoration-thickness: initial; text-decoration-style: initial; text-decoration-color: initial; background-color: rgb(251, 251, 251);&quot;&gt;&lt;br&gt;&lt;/div&gt;&lt;/div&gt;" style="shape=step;perimeter=stepPerimeter;whiteSpace=wrap;html=1;fixedSize=1;spacing=40;align=left;" vertex="1" parent="1">
          <mxGeometry x="-640" y="280" width="480" height="240" as="geometry" />
        </mxCell>
        <mxCell id="EyGYqPtxOf0bMZwlp0L7-9" value="&lt;b&gt;Problem World: Existing and Imminent Zone Violations not Correctly Detected&lt;br&gt;&lt;/b&gt;&lt;div&gt;&lt;span style=&quot;background-color: initial;&quot;&gt;&lt;span style=&quot;background-color: initial;&quot;&gt;&lt;font style=&quot;font-size: 10px;&quot;&gt;Given a Mission M with&amp;nbsp;&lt;/font&gt;&lt;/span&gt;&lt;font style=&quot;background-color: initial; font-size: 10px;&quot;&gt;vehicle set V&lt;sub&gt;S&lt;/sub&gt;, and zone set Z&lt;sub&gt;S&lt;/sub&gt;&amp;nbsp;&lt;/font&gt;&lt;/span&gt;&lt;/div&gt;&lt;div&gt;&lt;span style=&quot;background-color: initial;&quot;&gt;&lt;font style=&quot;font-size: 14px;&quot;&gt;∃&lt;/font&gt;&lt;/span&gt;&lt;font style=&quot;background-color: initial; font-size: 10px;&quot;&gt;&amp;nbsp;&lt;/font&gt;&lt;font style=&quot;background-color: initial; font-size: 10px;&quot;&gt;time&amp;nbsp;&lt;/font&gt;&lt;span style=&quot;background-color: initial;&quot;&gt;&lt;font style=&quot;font-size: 10px;&quot;&gt;T&lt;sub&gt;V&amp;nbsp;&lt;/sub&gt;&lt;/font&gt;&lt;/span&gt;&lt;span style=&quot;font-size: 10px; background-color: initial;&quot;&gt;∈ { T | during(M,T) }, V&amp;nbsp;&lt;/span&gt;&lt;span style=&quot;font-size: 10px; background-color: initial;&quot;&gt;∈&lt;/span&gt;&lt;span style=&quot;background-color: initial; font-size: 10px;&quot;&gt;V&lt;sub&gt;S&lt;/sub&gt;, Z&amp;nbsp;&lt;/span&gt;&lt;span style=&quot;font-size: 10px; background-color: initial;&quot;&gt;∈&amp;nbsp;&lt;/span&gt;&lt;span style=&quot;background-color: initial; font-size: 10px;&quot;&gt;Z&lt;sub&gt;S&lt;/sub&gt;&amp;nbsp;:&amp;nbsp;&lt;/span&gt;&lt;/div&gt;&lt;div style=&quot;&quot;&gt;&lt;font style=&quot;background-color: initial; font-size: 10px;&quot;&gt;&amp;nbsp; &amp;nbsp; [ vehicleV&lt;/font&gt;&lt;span style=&quot;background-color: initial;&quot;&gt;&lt;font style=&quot;font-size: 10px;&quot;&gt;iolatesZoneAtTime(V,Z,T&lt;sub&gt;V&amp;nbsp;&lt;/sub&gt;)&amp;nbsp;&lt;/font&gt;&lt;/span&gt;&lt;br&gt;&lt;/div&gt;&lt;div style=&quot;&quot;&gt;&lt;span style=&quot;background-color: initial;&quot;&gt;&lt;font style=&quot;font-size: 10px;&quot;&gt;&amp;nbsp; &amp;nbsp; &amp;nbsp; &amp;amp;&amp;amp;&amp;nbsp;&lt;/font&gt;&lt;/span&gt;&lt;/div&gt;&lt;div style=&quot;&quot;&gt;&lt;span style=&quot;background-color: initial;&quot;&gt;&lt;font style=&quot;font-size: 14px;&quot;&gt;&amp;nbsp; &amp;nbsp; ~∃&lt;/font&gt;&lt;/span&gt;&lt;font style=&quot;background-color: initial; font-size: 10px;&quot;&gt;&amp;nbsp;&lt;/font&gt;&lt;span style=&quot;background-color: initial;&quot;&gt;&lt;font style=&quot;font-size: 10px;&quot;&gt;T&lt;sub&gt;R&lt;/sub&gt;&amp;nbsp;&lt;/font&gt;&lt;/span&gt;&lt;span style=&quot;font-size: 10px; background-color: initial;&quot;&gt;∈&amp;nbsp;&lt;/span&gt;&lt;span style=&quot;background-color: initial; font-size: 10px;&quot;&gt;{ T | during(M,T) } where T&lt;sub&gt;R&lt;/sub&gt; &amp;lt;= T&lt;sub&gt;V&lt;/sub&gt;&amp;nbsp;:&lt;/span&gt;&lt;/div&gt;&lt;div style=&quot;&quot;&gt;&lt;span style=&quot;background-color: initial;&quot;&gt;&lt;font style=&quot;font-size: 10px;&quot;&gt;&amp;nbsp; &amp;nbsp; &amp;nbsp; &amp;nbsp; &amp;nbsp; &amp;nbsp;&lt;/font&gt;&lt;/span&gt;&lt;span style=&quot;font-size: 10px; background-color: initial;&quot;&gt;&amp;nbsp;~detectedVehicleZoneViolationAtTime(V,Z,T&lt;/span&gt;&lt;sub style=&quot;background-color: initial;&quot;&gt;V&lt;/sub&gt;&lt;span style=&quot;font-size: 10px; background-color: initial;&quot;&gt;, T&lt;/span&gt;&lt;sub style=&quot;background-color: initial;&quot;&gt;R&lt;/sub&gt;&lt;span style=&quot;font-size: 10px; background-color: initial;&quot;&gt;) ]&lt;/span&gt;&lt;/div&gt;&lt;div style=&quot;&quot;&gt;&lt;span style=&quot;font-size: 10px; background-color: initial;&quot;&gt;&amp;nbsp; ||&lt;/span&gt;&lt;/div&gt;&lt;div style=&quot;&quot;&gt;&lt;span style=&quot;font-size: 10px; background-color: initial;&quot;&gt;&amp;nbsp; &amp;nbsp; [ ~&lt;/span&gt;&lt;font style=&quot;background-color: initial; font-size: 10px;&quot;&gt;vehicleV&lt;/font&gt;&lt;span style=&quot;background-color: initial;&quot;&gt;&lt;font style=&quot;font-size: 10px;&quot;&gt;iolatesZoneAtTime(V,Z,T&lt;sub&gt;V&amp;nbsp;&lt;/sub&gt;)&amp;nbsp;&lt;/font&gt;&lt;/span&gt;&lt;/div&gt;&lt;div style=&quot;&quot;&gt;&lt;span style=&quot;background-color: initial;&quot;&gt;&lt;font style=&quot;font-size: 10px;&quot;&gt;&amp;nbsp; &amp;nbsp; &amp;nbsp; &amp;amp;&amp;amp;&lt;/font&gt;&lt;/span&gt;&lt;/div&gt;&lt;div style=&quot;&quot;&gt;&lt;div&gt;&lt;span style=&quot;background-color: initial;&quot;&gt;&lt;font style=&quot;font-size: 14px;&quot;&gt;&amp;nbsp; &amp;nbsp; ∃&lt;/font&gt;&lt;/span&gt;&lt;font style=&quot;background-color: initial; font-size: 10px;&quot;&gt;&amp;nbsp;&lt;/font&gt;&lt;span style=&quot;background-color: initial;&quot;&gt;&lt;font style=&quot;font-size: 10px;&quot;&gt;T&lt;sub&gt;R&lt;/sub&gt;&amp;nbsp;&lt;/font&gt;&lt;/span&gt;&lt;span style=&quot;background-color: initial;&quot;&gt;&lt;font style=&quot;font-size: 10px;&quot;&gt;&amp;nbsp;&lt;/font&gt;&lt;/span&gt;&lt;span style=&quot;background-color: initial; font-size: 10px;&quot;&gt;∈&amp;nbsp;&lt;/span&gt;&lt;span style=&quot;background-color: initial; font-size: 10px;&quot;&gt;{ T | during(M,T) }&amp;nbsp;&lt;/span&gt;&lt;span style=&quot;background-color: initial; font-size: 10px;&quot;&gt;:&amp;nbsp;&lt;/span&gt;&lt;span style=&quot;background-color: initial; font-size: 10px;&quot;&gt;detectedVehicleZoneViolationAtTime(V,Z,T&lt;/span&gt;&lt;sub style=&quot;background-color: initial;&quot;&gt;V&lt;/sub&gt;&lt;span style=&quot;background-color: initial; font-size: 10px;&quot;&gt;, T&lt;/span&gt;&lt;sub style=&quot;background-color: initial;&quot;&gt;R&lt;/sub&gt;&lt;span style=&quot;background-color: initial; font-size: 10px;&quot;&gt;) ]&lt;/span&gt;&lt;/div&gt;&lt;/div&gt;" style="shape=hexagon;perimeter=hexagonPerimeter2;whiteSpace=wrap;html=1;fixedSize=1;spacing=40;align=left;" vertex="1" parent="1">
          <mxGeometry x="-660" y="20" width="460" height="220" as="geometry" />
        </mxCell>
        <mxCell id="EyGYqPtxOf0bMZwlp0L7-12" value="Zone&lt;div&gt;Violations&lt;/div&gt;" style="rounded=0;whiteSpace=wrap;html=1;strokeWidth=1;spacingLeft=10;spacingRight=10;spacingBottom=10;spacingTop=10;spacing=10;" vertex="1" parent="1">
          <mxGeometry x="-1039.38" y="92.5" width="100.63" height="45.01" as="geometry" />
        </mxCell>
        <mxCell id="EyGYqPtxOf0bMZwlp0L7-14" value="" style="endArrow=none;html=1;rounded=0;entryX=0.5;entryY=1;entryDx=0;entryDy=0;exitX=1;exitY=0.5;exitDx=0;exitDy=0;" edge="1" parent="1" source="EyGYqPtxOf0bMZwlp0L7-6" target="EyGYqPtxOf0bMZwlp0L7-12">
          <mxGeometry width="50" height="50" relative="1" as="geometry">
            <mxPoint x="-1120" y="330" as="sourcePoint" />
            <mxPoint x="-1070" y="280" as="targetPoint" />
          </mxGeometry>
        </mxCell>
        <mxCell id="EyGYqPtxOf0bMZwlp0L7-15" value="" style="endArrow=none;html=1;rounded=0;entryX=0.75;entryY=1;entryDx=0;entryDy=0;exitX=1;exitY=0.5;exitDx=0;exitDy=0;" edge="1" parent="1" source="EyGYqPtxOf0bMZwlp0L7-4" target="EyGYqPtxOf0bMZwlp0L7-12">
          <mxGeometry width="50" height="50" relative="1" as="geometry">
            <mxPoint x="-1039" y="255" as="sourcePoint" />
            <mxPoint x="-1010" y="185" as="targetPoint" />
          </mxGeometry>
        </mxCell>
        <mxCell id="EyGYqPtxOf0bMZwlp0L7-16" value="Zones" style="rounded=0;whiteSpace=wrap;html=1;" vertex="1" parent="1">
          <mxGeometry x="-1342.5" y="70" width="80" height="40" as="geometry" />
        </mxCell>
        <mxCell id="EyGYqPtxOf0bMZwlp0L7-17" value="&lt;span style=&quot;font-size: 10px;&quot;&gt;interact&lt;/span&gt;&lt;div&gt;&lt;span style=&quot;font-size: 10px;&quot;&gt;as&lt;/span&gt;&lt;/div&gt;" style="ellipse;whiteSpace=wrap;html=1;dashed=1;spacing=12;" vertex="1" parent="1">
          <mxGeometry x="-1233.13" y="100" width="60.63" height="30" as="geometry" />
        </mxCell>
        <mxCell id="EyGYqPtxOf0bMZwlp0L7-18" style="rounded=0;orthogonalLoop=1;jettySize=auto;html=1;entryX=0;entryY=0.5;entryDx=0;entryDy=0;dashed=1;endArrow=none;endFill=0;exitX=1;exitY=0.5;exitDx=0;exitDy=0;" edge="1" parent="1" source="EyGYqPtxOf0bMZwlp0L7-16" target="EyGYqPtxOf0bMZwlp0L7-17">
          <mxGeometry relative="1" as="geometry">
            <mxPoint x="-1352.13" y="130" as="sourcePoint" />
            <mxPoint x="-1332.13" y="100" as="targetPoint" />
          </mxGeometry>
        </mxCell>
        <mxCell id="EyGYqPtxOf0bMZwlp0L7-19" style="rounded=0;orthogonalLoop=1;jettySize=auto;html=1;entryX=0;entryY=0.5;entryDx=0;entryDy=0;dashed=1;endArrow=none;endFill=0;" edge="1" parent="1" source="EyGYqPtxOf0bMZwlp0L7-20" target="EyGYqPtxOf0bMZwlp0L7-21">
          <mxGeometry relative="1" as="geometry" />
        </mxCell>
        <mxCell id="EyGYqPtxOf0bMZwlp0L7-20" value="Missions" style="rounded=0;whiteSpace=wrap;html=1;" vertex="1" parent="1">
          <mxGeometry x="-1530" y="100" width="80" height="40" as="geometry" />
        </mxCell>
        <mxCell id="EyGYqPtxOf0bMZwlp0L7-21" value="&lt;div&gt;&lt;span style=&quot;font-size: 10px;&quot;&gt;have&lt;/span&gt;&lt;/div&gt;" style="ellipse;whiteSpace=wrap;html=1;dashed=1;spacing=12;" vertex="1" parent="1">
          <mxGeometry x="-1423.13" y="105" width="60.63" height="30" as="geometry" />
        </mxCell>
        <mxCell id="EyGYqPtxOf0bMZwlp0L7-22" value="Vehicles" style="rounded=0;whiteSpace=wrap;html=1;" vertex="1" parent="1">
          <mxGeometry x="-1342.5" y="120" width="80" height="40" as="geometry" />
        </mxCell>
        <mxCell id="EyGYqPtxOf0bMZwlp0L7-23" style="rounded=0;orthogonalLoop=1;jettySize=auto;html=1;entryX=0;entryY=0.5;entryDx=0;entryDy=0;dashed=1;endArrow=none;endFill=0;exitX=1;exitY=0.5;exitDx=0;exitDy=0;" edge="1" parent="1" source="EyGYqPtxOf0bMZwlp0L7-21" target="EyGYqPtxOf0bMZwlp0L7-16">
          <mxGeometry relative="1" as="geometry">
            <mxPoint x="-1440.13" y="130" as="sourcePoint" />
            <mxPoint x="-1413.13" y="130" as="targetPoint" />
          </mxGeometry>
        </mxCell>
        <mxCell id="EyGYqPtxOf0bMZwlp0L7-24" style="rounded=0;orthogonalLoop=1;jettySize=auto;html=1;entryX=0;entryY=0.5;entryDx=0;entryDy=0;dashed=1;endArrow=none;endFill=0;exitX=1;exitY=0.5;exitDx=0;exitDy=0;" edge="1" parent="1" source="EyGYqPtxOf0bMZwlp0L7-21" target="EyGYqPtxOf0bMZwlp0L7-22">
          <mxGeometry relative="1" as="geometry">
            <mxPoint x="-1352.13" y="130" as="sourcePoint" />
            <mxPoint x="-1332.13" y="100" as="targetPoint" />
          </mxGeometry>
        </mxCell>
        <mxCell id="EyGYqPtxOf0bMZwlp0L7-25" style="rounded=0;orthogonalLoop=1;jettySize=auto;html=1;entryX=0;entryY=0.5;entryDx=0;entryDy=0;dashed=1;endArrow=none;endFill=0;exitX=1;exitY=0.5;exitDx=0;exitDy=0;" edge="1" parent="1" source="EyGYqPtxOf0bMZwlp0L7-22" target="EyGYqPtxOf0bMZwlp0L7-17">
          <mxGeometry relative="1" as="geometry">
            <mxPoint x="-1252.5" y="100" as="sourcePoint" />
            <mxPoint x="-1223.5" y="125" as="targetPoint" />
          </mxGeometry>
        </mxCell>
        <mxCell id="EyGYqPtxOf0bMZwlp0L7-27" style="rounded=0;orthogonalLoop=1;jettySize=auto;html=1;entryX=0;entryY=0.5;entryDx=0;entryDy=0;dashed=1;endArrow=none;endFill=0;exitX=1;exitY=0.5;exitDx=0;exitDy=0;" edge="1" parent="1" source="EyGYqPtxOf0bMZwlp0L7-17" target="EyGYqPtxOf0bMZwlp0L7-12">
          <mxGeometry relative="1" as="geometry">
            <mxPoint x="-1331.5100000000002" y="12.5" as="sourcePoint" />
            <mxPoint x="-1112.5100000000002" y="-2.5" as="targetPoint" />
          </mxGeometry>
        </mxCell>
        <mxCell id="EyGYqPtxOf0bMZwlp0L7-29" style="rounded=0;orthogonalLoop=1;jettySize=auto;html=1;entryX=0;entryY=0.5;entryDx=0;entryDy=0;dashed=1;endArrow=none;endFill=0;" edge="1" parent="1">
          <mxGeometry relative="1" as="geometry">
            <mxPoint x="-1029.37" y="30" as="sourcePoint" />
            <mxPoint x="-1039.3700000000001" y="40" as="targetPoint" />
          </mxGeometry>
        </mxCell>
        <mxCell id="EyGYqPtxOf0bMZwlp0L7-35" value="&lt;b&gt;&lt;font style=&quot;font-size: 15px;&quot;&gt;OpenUxAS&lt;/font&gt;&lt;/b&gt;" style="text;html=1;align=center;verticalAlign=middle;whiteSpace=wrap;rounded=0;" vertex="1" parent="1">
          <mxGeometry x="-1110.0000000000002" y="430" width="60" height="30" as="geometry" />
        </mxCell>
        <mxCell id="EyGYqPtxOf0bMZwlp0L7-36" value="" style="group" vertex="1" connectable="0" parent="1">
          <mxGeometry x="-1560" y="840" width="1410" height="681.2399999999998" as="geometry" />
        </mxCell>
        <mxCell id="EyGYqPtxOf0bMZwlp0L7-37" value="" style="rounded=0;whiteSpace=wrap;html=1;strokeColor=default;align=left;verticalAlign=middle;spacingLeft=10;spacingRight=10;spacingTop=10;spacingBottom=10;fontFamily=Helvetica;fontSize=12;fontColor=default;fillColor=default;strokeWidth=2;" vertex="1" parent="EyGYqPtxOf0bMZwlp0L7-36">
          <mxGeometry y="136.23999999999978" width="697.5" height="300" as="geometry" />
        </mxCell>
        <mxCell id="EyGYqPtxOf0bMZwlp0L7-38" value="Imminent and Occurring Zone Violation Monitor Service" style="rounded=0;whiteSpace=wrap;html=1;strokeWidth=3;fillColor=#dae8fc;strokeColor=#000000;spacingLeft=10;spacingRight=10;spacingBottom=10;spacingTop=10;spacing=10;" vertex="1" parent="EyGYqPtxOf0bMZwlp0L7-36">
          <mxGeometry x="270" y="154.99" width="162.5" height="70" as="geometry" />
        </mxCell>
        <mxCell id="EyGYqPtxOf0bMZwlp0L7-39" value="Do Something About Existing and/or ImminentZone Violations" style="ellipse;whiteSpace=wrap;html=1;spacingLeft=10;spacingBottom=10;spacingRight=10;spacingTop=10;strokeWidth=3;fillColor=#f5f5f5;fontColor=#333333;strokeColor=#666666;" vertex="1" parent="EyGYqPtxOf0bMZwlp0L7-36">
          <mxGeometry x="477.5" y="341.24" width="200" height="80" as="geometry" />
        </mxCell>
        <mxCell id="EyGYqPtxOf0bMZwlp0L7-40" value="Know About Existing and/or&amp;nbsp; Imminent&amp;nbsp;&lt;div&gt;Zone Violations&lt;/div&gt;" style="ellipse;whiteSpace=wrap;html=1;spacingLeft=10;spacingBottom=10;spacingRight=10;spacingTop=10;strokeWidth=3;fillColor=#dae8fc;strokeColor=#000000;" vertex="1" parent="EyGYqPtxOf0bMZwlp0L7-36">
          <mxGeometry x="477.5" y="149.99" width="200" height="80" as="geometry" />
        </mxCell>
        <mxCell id="EyGYqPtxOf0bMZwlp0L7-41" style="rounded=0;orthogonalLoop=1;jettySize=auto;html=1;dashed=1;endArrow=none;endFill=0;" edge="1" parent="EyGYqPtxOf0bMZwlp0L7-36" target="EyGYqPtxOf0bMZwlp0L7-46">
          <mxGeometry relative="1" as="geometry">
            <mxPoint x="390" y="278.1199999999999" as="sourcePoint" />
          </mxGeometry>
        </mxCell>
        <mxCell id="EyGYqPtxOf0bMZwlp0L7-42" value="Mission Performers that Should be Aware of Existing And/Or&lt;div&gt;Imminent Zone Violations&lt;/div&gt;" style="rounded=0;whiteSpace=wrap;html=1;strokeWidth=3;fillColor=#f5f5f5;strokeColor=#666666;spacingLeft=10;spacingRight=10;spacingBottom=10;spacingTop=10;spacing=10;fontColor=#333333;" vertex="1" parent="EyGYqPtxOf0bMZwlp0L7-36">
          <mxGeometry x="270" y="338.1099999999999" width="162.5" height="86.25" as="geometry" />
        </mxCell>
        <mxCell id="EyGYqPtxOf0bMZwlp0L7-43" value="" style="endArrow=none;html=1;rounded=0;exitX=1;exitY=0.5;exitDx=0;exitDy=0;entryX=0;entryY=0.5;entryDx=0;entryDy=0;" edge="1" parent="EyGYqPtxOf0bMZwlp0L7-36" source="EyGYqPtxOf0bMZwlp0L7-42" target="EyGYqPtxOf0bMZwlp0L7-39">
          <mxGeometry width="50" height="50" relative="1" as="geometry">
            <mxPoint x="577.5" y="427.4799999999998" as="sourcePoint" />
            <mxPoint x="477.5" y="377.4799999999998" as="targetPoint" />
          </mxGeometry>
        </mxCell>
        <mxCell id="EyGYqPtxOf0bMZwlp0L7-44" value="" style="endArrow=none;html=1;rounded=0;exitX=1;exitY=0.5;exitDx=0;exitDy=0;entryX=0;entryY=0.5;entryDx=0;entryDy=0;" edge="1" parent="EyGYqPtxOf0bMZwlp0L7-36" source="EyGYqPtxOf0bMZwlp0L7-38" target="EyGYqPtxOf0bMZwlp0L7-40">
          <mxGeometry width="50" height="50" relative="1" as="geometry">
            <mxPoint x="442.5" y="327.24" as="sourcePoint" />
            <mxPoint x="487.5" y="326.24" as="targetPoint" />
          </mxGeometry>
        </mxCell>
        <mxCell id="EyGYqPtxOf0bMZwlp0L7-45" value="" style="endArrow=none;html=1;rounded=0;exitX=0.75;exitY=0;exitDx=0;exitDy=0;entryX=0.75;entryY=1;entryDx=0;entryDy=0;endFill=0;" edge="1" parent="EyGYqPtxOf0bMZwlp0L7-36" source="EyGYqPtxOf0bMZwlp0L7-42" target="EyGYqPtxOf0bMZwlp0L7-38">
          <mxGeometry width="50" height="50" relative="1" as="geometry">
            <mxPoint x="497.5" y="266.24" as="sourcePoint" />
            <mxPoint x="547.5" y="216.24" as="targetPoint" />
          </mxGeometry>
        </mxCell>
        <mxCell id="EyGYqPtxOf0bMZwlp0L7-46" value="Mission performers that need to know about existing and or imminent zone violations shall subscribe to the zone violation monitor service" style="ellipse;whiteSpace=wrap;html=1;spacingLeft=10;spacingBottom=10;spacingRight=10;spacingTop=10;strokeWidth=1;fillColor=#f5f5f5;strokeColor=#666666;fontColor=#333333;dashed=1;spacing=22;" vertex="1" parent="EyGYqPtxOf0bMZwlp0L7-36">
          <mxGeometry x="417.5" y="238.1099999999999" width="260" height="82.18" as="geometry" />
        </mxCell>
        <mxCell id="EyGYqPtxOf0bMZwlp0L7-47" value="The Violation Monitoring Service shall notify subscribers of existing and imminent zone violations" style="ellipse;whiteSpace=wrap;html=1;spacingLeft=10;spacingBottom=10;spacingRight=10;spacingTop=10;strokeWidth=1;fillColor=#dae8fc;strokeColor=#6c8ebf;dashed=1;spacing=12;" vertex="1" parent="EyGYqPtxOf0bMZwlp0L7-36">
          <mxGeometry x="42.5" y="242.79999999999973" width="210" height="72.81" as="geometry" />
        </mxCell>
        <mxCell id="EyGYqPtxOf0bMZwlp0L7-48" style="rounded=0;orthogonalLoop=1;jettySize=auto;html=1;dashed=1;endArrow=none;endFill=0;entryX=1;entryY=0.5;entryDx=0;entryDy=0;" edge="1" parent="EyGYqPtxOf0bMZwlp0L7-36" target="EyGYqPtxOf0bMZwlp0L7-47">
          <mxGeometry relative="1" as="geometry">
            <mxPoint x="310" y="278.1199999999999" as="sourcePoint" />
            <mxPoint x="257.5" y="389.24" as="targetPoint" />
          </mxGeometry>
        </mxCell>
        <mxCell id="EyGYqPtxOf0bMZwlp0L7-49" value="" style="endArrow=none;html=1;rounded=0;exitX=0.25;exitY=1;exitDx=0;exitDy=0;entryX=0.25;entryY=0;entryDx=0;entryDy=0;endFill=0;" edge="1" parent="EyGYqPtxOf0bMZwlp0L7-36" source="EyGYqPtxOf0bMZwlp0L7-38" target="EyGYqPtxOf0bMZwlp0L7-42">
          <mxGeometry width="50" height="50" relative="1" as="geometry">
            <mxPoint x="406.5" y="348.24" as="sourcePoint" />
            <mxPoint x="406.5" y="260.24" as="targetPoint" />
          </mxGeometry>
        </mxCell>
        <mxCell id="EyGYqPtxOf0bMZwlp0L7-50" value="&lt;b&gt;&lt;font style=&quot;font-size: 15px;&quot;&gt;OpenUxAS&lt;/font&gt;&lt;/b&gt;" style="text;html=1;align=center;verticalAlign=middle;whiteSpace=wrap;rounded=0;" vertex="1" parent="EyGYqPtxOf0bMZwlp0L7-36">
          <mxGeometry x="95" y="400.29999999999995" width="60" height="30" as="geometry" />
        </mxCell>
        <mxCell id="EyGYqPtxOf0bMZwlp0L7-51" style="rounded=0;orthogonalLoop=1;jettySize=auto;html=1;exitX=1.004;exitY=0.465;exitDx=0;exitDy=0;entryX=0;entryY=0.5;entryDx=0;entryDy=0;spacing=10;endArrow=none;endFill=0;exitPerimeter=0;" edge="1" parent="EyGYqPtxOf0bMZwlp0L7-36" source="EyGYqPtxOf0bMZwlp0L7-37" target="EyGYqPtxOf0bMZwlp0L7-52">
          <mxGeometry relative="1" as="geometry">
            <mxPoint x="608" y="-393.7600000000001" as="targetPoint" />
            <mxPoint x="540" y="-220.7600000000001" as="sourcePoint" />
          </mxGeometry>
        </mxCell>
        <mxCell id="EyGYqPtxOf0bMZwlp0L7-52" value="&lt;b&gt;Problem World State: Existing and Impending Zone Violation Notification of Subscribers&lt;br&gt;&lt;br&gt;&lt;/b&gt;&lt;div style=&quot;text-align: left;&quot;&gt;&lt;span style=&quot;font-size: 10px; background-color: initial;&quot;&gt;&lt;b&gt;Given&lt;/b&gt; mission M, mission&amp;nbsp;&lt;/span&gt;&lt;font style=&quot;font-size: 10px; background-color: initial;&quot;&gt;vehicle set VS and zone set ZS, set of observers NOBS, present time T&lt;sub&gt;P&lt;/sub&gt;,&amp;nbsp;&lt;/font&gt;&lt;span style=&quot;font-size: 10px; background-color: initial;&quot;&gt;time window T&lt;/span&gt;&lt;sub style=&quot;background-color: initial;&quot;&gt;W&lt;/sub&gt;&lt;span style=&quot;font-size: 10px; background-color: initial;&quot;&gt;&lt;font style=&quot;font-size: 9px;&quot;&gt;,&amp;nbsp;&lt;/font&gt;&lt;/span&gt;&lt;span style=&quot;font-size: 10px; background-color: initial;&quot;&gt;notification time window N&lt;/span&gt;&lt;sub style=&quot;background-color: initial;&quot;&gt;W&lt;/sub&gt;&lt;/div&gt;&lt;div style=&quot;text-align: left;&quot;&gt;&lt;span style=&quot;background-color: initial;&quot;&gt;&lt;br&gt;&lt;/span&gt;&lt;/div&gt;&lt;div style=&quot;text-align: left; font-size: 10px;&quot;&gt;&lt;font color=&quot;#ff0000&quot; style=&quot;font-size: 10px;&quot;&gt;&lt;span style=&quot;background-color: initial;&quot;&gt;&lt;b&gt;Given&lt;/b&gt;: Threshold probabilities of potential violation, PF and PT, defined by subscriber functions P&lt;/span&gt;&lt;span style=&quot;background-color: initial;&quot;&gt;&lt;sub&gt;TFP&lt;/sub&gt;(s), P&lt;sub&gt;TFN&lt;/sub&gt;(s)&lt;/span&gt;&lt;/font&gt;&lt;/div&gt;&lt;div style=&quot;text-align: left; font-size: 10px;&quot;&gt;&lt;sub style=&quot;background-color: initial;&quot;&gt;&lt;br&gt;&lt;/sub&gt;&lt;/div&gt;&lt;div style=&quot;text-align: left; font-size: 10px;&quot;&gt;&lt;span style=&quot;background-color: initial;&quot;&gt;&lt;font style=&quot;font-size: 14px;&quot;&gt;∃&lt;/font&gt;&lt;/span&gt;&lt;font style=&quot;background-color: initial; font-size: 10px;&quot;&gt;&amp;nbsp;V∈VS, Z&lt;/font&gt;&lt;span style=&quot;font-size: 10px; background-color: initial;&quot;&gt;∈&lt;/span&gt;&lt;font style=&quot;background-color: initial; font-size: 10px;&quot;&gt;ZS,&amp;nbsp;&lt;/font&gt;&lt;span style=&quot;background-color: initial; font-size: 10px;&quot;&gt;s&amp;nbsp;&lt;/span&gt;&lt;span style=&quot;background-color: initial; font-size: 10px;&quot;&gt;∈&amp;nbsp;S,&amp;nbsp;&lt;/span&gt;&lt;font style=&quot;background-color: initial; font-size: 10px;&quot;&gt;time T&lt;sub&gt;V&amp;nbsp;&lt;/sub&gt;where T&lt;sub&gt;P&lt;/sub&gt;&amp;nbsp;&amp;lt;= T&lt;sub&gt;V&lt;/sub&gt;&amp;nbsp;&amp;lt;= T&lt;sub&gt;P&lt;/sub&gt;+T&lt;sub&gt;W&lt;/sub&gt;&amp;nbsp; &lt;/font&gt;&lt;font style=&quot;background-color: initial; font-size: 10px;&quot;&gt;&amp;amp;&amp;amp;&amp;nbsp;&lt;/font&gt;&lt;font style=&quot;background-color: initial; font-size: 10px;&quot;&gt;&amp;nbsp;vehicleV&lt;/font&gt;&lt;span style=&quot;background-color: initial;&quot;&gt;&lt;font style=&quot;font-size: 10px;&quot;&gt;iolatesWithCertainty&lt;/font&gt;&lt;/span&gt;&lt;span style=&quot;background-color: initial; font-size: 10px;&quot;&gt;(T&lt;sub&gt;P&lt;/sub&gt;, V,Z,T&lt;/span&gt;&lt;sub style=&quot;background-color: initial;&quot;&gt;V&lt;/sub&gt;&lt;span style=&quot;background-color: initial;&quot;&gt;,&lt;/span&gt;&lt;span style=&quot;background-color: initial;&quot;&gt;&lt;font color=&quot;#ff0a12&quot;&gt;P&lt;sub&gt;TFP&lt;/sub&gt;(s)&lt;/font&gt;&lt;/span&gt;&lt;span style=&quot;background-color: initial;&quot;&gt;)&lt;/span&gt;&lt;/div&gt;&lt;div style=&quot;text-align: left; font-size: 10px;&quot;&gt;&lt;font color=&quot;#ff0a12&quot;&gt;&lt;span style=&quot;background-color: initial;&quot;&gt;&amp;nbsp; &amp;nbsp;&amp;amp;&amp;amp; ~vehicleDoesNotViolateZoneWithCertainty(&lt;/span&gt;&lt;span style=&quot;background-color: initial;&quot;&gt;T&lt;sub&gt;P&lt;/sub&gt;, V,Z,T&lt;/span&gt;&lt;sub style=&quot;background-color: initial;&quot;&gt;V&lt;/sub&gt;&lt;span style=&quot;background-color: initial;&quot;&gt;,&lt;/span&gt;&lt;span style=&quot;background-color: initial;&quot;&gt;P&lt;sub&gt;TFN&lt;/sub&gt;(s)&lt;/span&gt;&lt;span style=&quot;background-color: initial;&quot;&gt;)&lt;/span&gt;&lt;/font&gt;&lt;/div&gt;&lt;div style=&quot;text-align: left;&quot;&gt;&lt;span style=&quot;background-color: initial;&quot;&gt;&lt;font style=&quot;font-size: 10px;&quot;&gt;&amp;nbsp; &amp;nbsp;&amp;amp;&amp;amp;&amp;nbsp;&lt;/font&gt;&lt;/span&gt;&lt;span style=&quot;font-size: 10px; background-color: initial;&quot;&gt;~&lt;/span&gt;&lt;font style=&quot;background-color: initial; font-size: 10px;&quot;&gt;notifiedByTime&lt;/font&gt;&lt;span style=&quot;background-color: initial; font-size: 10px;&quot;&gt;(s,&amp;nbsp;&lt;/span&gt;&lt;span style=&quot;background-color: initial; font-size: 10px;&quot;&gt;vehicleViolatesZone(T&lt;sub&gt;P&lt;/sub&gt;,&lt;sub&gt;&amp;nbsp;&lt;/sub&gt;V,Z,T&lt;sub&gt;V&lt;/sub&gt;&lt;/span&gt;&lt;span style=&quot;background-color: initial; font-size: 10px;&quot;&gt;), T&lt;sub&gt;P&lt;/sub&gt;+N&lt;sub&gt;W&lt;/sub&gt;&lt;/span&gt;&lt;span style=&quot;background-color: initial;&quot;&gt;&lt;font style=&quot;font-size: 10px;&quot;&gt;)&lt;/font&gt;&lt;/span&gt;&lt;span style=&quot;background-color: initial; font-size: 10px;&quot;&gt;&amp;nbsp;&lt;/span&gt;&lt;/div&gt;&lt;div style=&quot;text-align: left;&quot;&gt;&lt;span style=&quot;background-color: initial; font-size: 10px;&quot;&gt;&lt;br&gt;&lt;/span&gt;&lt;/div&gt;&lt;div style=&quot;text-align: left;&quot;&gt;&lt;span style=&quot;background-color: initial; font-size: 10px;&quot;&gt;OR&lt;/span&gt;&lt;/div&gt;&lt;div style=&quot;text-align: left;&quot;&gt;&lt;span style=&quot;background-color: initial; font-size: 10px;&quot;&gt;&lt;br&gt;&lt;/span&gt;&lt;/div&gt;&lt;div style=&quot;text-align: left;&quot;&gt;&lt;div&gt;&lt;span style=&quot;background-color: initial;&quot;&gt;&lt;font style=&quot;font-size: 14px;&quot;&gt;∃&lt;/font&gt;&lt;/span&gt;&lt;font style=&quot;background-color: initial; font-size: 10px;&quot;&gt;&amp;nbsp;&lt;/font&gt;&lt;font style=&quot;background-color: initial; font-size: 10px;&quot;&gt;&lt;font style=&quot;background-color: initial;&quot;&gt;V∈VS, Z&lt;/font&gt;&lt;span style=&quot;background-color: initial;&quot;&gt;∈&lt;/span&gt;&lt;font style=&quot;background-color: initial;&quot;&gt;ZS,&amp;nbsp;&lt;/font&gt;&lt;/font&gt;&lt;span style=&quot;background-color: initial; font-size: 14px;&quot;&gt;∃&lt;/span&gt;&lt;span style=&quot;background-color: initial; font-size: 10px;&quot;&gt;s&amp;nbsp;&lt;/span&gt;&lt;span style=&quot;background-color: initial; font-size: 10px;&quot;&gt;∈&amp;nbsp;S,&amp;nbsp;&lt;/span&gt;&lt;span style=&quot;background-color: initial;&quot;&gt;&lt;font style=&quot;font-size: 10px;&quot;&gt;time T&lt;sub&gt;N,&amp;nbsp;&lt;/sub&gt;&lt;/font&gt;&lt;/span&gt;&lt;font style=&quot;background-color: initial; font-size: 10px;&quot;&gt;&lt;font style=&quot;background-color: initial;&quot;&gt;time T&lt;sub&gt;V&lt;/sub&gt;&lt;/font&gt;&lt;sub&gt;&amp;nbsp;&lt;/sub&gt;where ~&lt;/font&gt;&lt;font style=&quot;background-color: initial; font-size: 10px;&quot;&gt;vehicleV&lt;/font&gt;&lt;span style=&quot;background-color: initial;&quot;&gt;&lt;font style=&quot;font-size: 10px;&quot;&gt;iolatesZone(T&lt;sub&gt;P&lt;/sub&gt;, V,Z,T&lt;sub&gt;V&lt;/sub&gt;&lt;/font&gt;&lt;/span&gt;&lt;span style=&quot;background-color: initial; font-size: 10px;&quot;&gt;,&lt;/span&gt;&lt;span style=&quot;background-color: initial; font-size: 10px;&quot;&gt;P&lt;sub&gt;TFN&lt;/sub&gt;(s)&lt;/span&gt;&lt;span style=&quot;font-size: 10px; background-color: initial;&quot;&gt;) :&lt;/span&gt;&lt;/div&gt;&lt;div&gt;&lt;span style=&quot;background-color: initial;&quot;&gt;&lt;font style=&quot;font-size: 10px;&quot;&gt;&amp;nbsp; &amp;nbsp; &amp;nbsp;&amp;nbsp;&lt;/font&gt;&lt;/span&gt;&lt;span style=&quot;background-color: initial;&quot;&gt;&lt;font style=&quot;font-size: 10px;&quot;&gt;n&lt;/font&gt;&lt;/span&gt;&lt;font style=&quot;background-color: initial; font-size: 10px;&quot;&gt;otifiedByTime&lt;/font&gt;&lt;span style=&quot;background-color: initial; font-size: 10px;&quot;&gt;(s,&amp;nbsp;&lt;/span&gt;&lt;span style=&quot;background-color: initial; font-size: 10px;&quot;&gt;vehicleViolatesZone(T&lt;sub&gt;P&lt;/sub&gt;, V,Z,T&lt;sub&gt;V&lt;/sub&gt;&lt;/span&gt;&lt;span style=&quot;background-color: initial;&quot;&gt;&lt;font style=&quot;font-size: 10px;&quot;&gt;), T&lt;sub&gt;N&lt;/sub&gt;)&lt;/font&gt;&lt;/span&gt;&lt;span style=&quot;background-color: initial; font-size: 10px;&quot;&gt;&amp;nbsp;]&lt;/span&gt;&lt;/div&gt;&lt;/div&gt;" style="shape=hexagon;perimeter=hexagonPerimeter2;whiteSpace=wrap;html=1;fixedSize=1;spacing=40;" vertex="1" parent="EyGYqPtxOf0bMZwlp0L7-36">
          <mxGeometry x="728.75" y="18.439999999999827" width="660" height="271.88" as="geometry" />
        </mxCell>
        <mxCell id="EyGYqPtxOf0bMZwlp0L7-53" value="&lt;b style=&quot;forced-color-adjust: none; color: rgb(0, 0, 0); font-family: Helvetica; font-size: 12px; font-style: normal; font-variant-ligatures: normal; font-variant-caps: normal; letter-spacing: normal; orphans: 2; text-align: center; text-indent: 0px; text-transform: none; widows: 2; word-spacing: 0px; -webkit-text-stroke-width: 0px; white-space: normal; text-decoration-thickness: initial; text-decoration-style: initial; text-decoration-color: initial; background-color: rgb(251, 251, 251);&quot;&gt;Desired World State: Existing and Impending&amp;nbsp;&lt;/b&gt;&lt;div&gt;&lt;b style=&quot;forced-color-adjust: none; color: rgb(0, 0, 0); font-family: Helvetica; font-size: 12px; font-style: normal; font-variant-ligatures: normal; font-variant-caps: normal; letter-spacing: normal; orphans: 2; text-align: center; text-indent: 0px; text-transform: none; widows: 2; word-spacing: 0px; -webkit-text-stroke-width: 0px; white-space: normal; text-decoration-thickness: initial; text-decoration-style: initial; text-decoration-color: initial; background-color: rgb(251, 251, 251);&quot;&gt;Zone Violation Notification of Subscribers&lt;br style=&quot;forced-color-adjust: none;&quot;&gt;&lt;/b&gt;&lt;div style=&quot;forced-color-adjust: none; color: rgb(0, 0, 0); font-family: Helvetica; font-style: normal; font-variant-ligatures: normal; font-variant-caps: normal; font-weight: 400; letter-spacing: normal; orphans: 2; text-indent: 0px; text-transform: none; widows: 2; word-spacing: 0px; -webkit-text-stroke-width: 0px; white-space: normal; text-decoration-thickness: initial; text-decoration-style: initial; text-decoration-color: initial; text-align: left; background-color: rgb(251, 251, 251);&quot;&gt;&lt;div style=&quot;font-size: 12px;&quot;&gt;&lt;span style=&quot;font-size: 10px; background-color: initial;&quot;&gt;Given mission M, mission&amp;nbsp;&lt;/span&gt;&lt;font style=&quot;font-size: 10px; background-color: initial;&quot;&gt;vehicle set VS and zone set ZS, set of observers NOBS, present time T&lt;sub&gt;P&lt;/sub&gt;,&amp;nbsp;&lt;/font&gt;&lt;span style=&quot;font-size: 10px; background-color: initial;&quot;&gt;time window T&lt;/span&gt;&lt;sub style=&quot;background-color: initial;&quot;&gt;W&lt;/sub&gt;&lt;span style=&quot;font-size: 10px; background-color: initial;&quot;&gt;&lt;font style=&quot;font-size: 9px;&quot;&gt;,&amp;nbsp;&lt;/font&gt;&lt;/span&gt;&lt;span style=&quot;font-size: 10px; background-color: initial;&quot;&gt;notification time window N&lt;/span&gt;&lt;sub style=&quot;background-color: initial;&quot;&gt;W.&lt;/sub&gt;&lt;/div&gt;&lt;div style=&quot;font-size: 12px;&quot;&gt;&lt;sub style=&quot;background-color: initial;&quot;&gt;&lt;br&gt;&lt;/sub&gt;&lt;/div&gt;&lt;div style=&quot;font-size: 12px;&quot;&gt;&lt;span style=&quot;font-size: 14px;&quot;&gt;∀&lt;/span&gt;&lt;span style=&quot;background-color: initial;&quot;&gt;&lt;font style=&quot;font-size: 14px;&quot;&gt;&amp;nbsp;&lt;/font&gt;&lt;/span&gt;&lt;font style=&quot;background-color: initial; font-size: 10px;&quot;&gt;V∈VS, Z&lt;/font&gt;&lt;span style=&quot;background-color: initial; font-size: 10px;&quot;&gt;∈&lt;/span&gt;&lt;font style=&quot;background-color: initial; font-size: 10px;&quot;&gt;ZS,&amp;nbsp;&lt;/font&gt;&lt;span style=&quot;background-color: initial; font-size: 10px;&quot;&gt;s&amp;nbsp;&lt;/span&gt;&lt;span style=&quot;background-color: initial; font-size: 10px;&quot;&gt;∈&amp;nbsp;S,&amp;nbsp;&lt;/span&gt;&lt;font style=&quot;background-color: initial; font-size: 10px;&quot;&gt;time T&lt;sub&gt;V&amp;nbsp;&lt;/sub&gt;where T&lt;sub&gt;P&lt;/sub&gt;&amp;nbsp;&amp;lt;= T&lt;sub&gt;V&lt;/sub&gt;&amp;nbsp;&amp;lt;= T&lt;sub&gt;P&lt;/sub&gt;+T&lt;sub&gt;W&lt;/sub&gt;, &amp;amp;&amp;amp;&amp;nbsp;&lt;/font&gt;&lt;font style=&quot;background-color: initial; font-size: 10px;&quot;&gt;vehicleV&lt;/font&gt;&lt;span style=&quot;background-color: initial;&quot;&gt;&lt;font style=&quot;font-size: 10px;&quot;&gt;iolatesZone(T&lt;sub&gt;P&lt;/sub&gt;, V,Z,T&lt;sub&gt;V&lt;/sub&gt;):&lt;/font&gt;&lt;/span&gt;&lt;/div&gt;&lt;div style=&quot;font-size: 12px;&quot;&gt;&lt;font style=&quot;background-color: initial; font-size: 10px;&quot;&gt;&lt;span style=&quot;white-space: pre;&quot;&gt;&#x9;&lt;/span&gt;notifiedByTime&lt;/font&gt;&lt;span style=&quot;background-color: initial; font-size: 10px;&quot;&gt;(s, &lt;/span&gt;&lt;span style=&quot;background-color: initial; font-size: 10px;&quot;&gt;vehicleViolatesZone(T&lt;sub&gt;P&lt;/sub&gt;, V,Z,T&lt;sub&gt;V&lt;/sub&gt;&lt;/span&gt;&lt;span style=&quot;background-color: initial; font-size: 10px;&quot;&gt;), T&lt;sub&gt;P&lt;/sub&gt;+N&lt;sub&gt;W&lt;/sub&gt;&lt;/span&gt;&lt;span style=&quot;background-color: initial;&quot;&gt;&lt;font style=&quot;font-size: 10px;&quot;&gt;)&lt;/font&gt;&lt;/span&gt;&lt;/div&gt;&lt;div style=&quot;font-size: 12px;&quot;&gt;&lt;span style=&quot;background-color: initial; font-size: 10px;&quot;&gt;&lt;br&gt;&lt;/span&gt;&lt;/div&gt;&lt;div style=&quot;font-size: 12px;&quot;&gt;&lt;span style=&quot;background-color: initial; font-size: 10px;&quot;&gt;AND&lt;/span&gt;&lt;/div&gt;&lt;div style=&quot;font-size: 12px;&quot;&gt;&lt;span style=&quot;background-color: initial; font-size: 10px;&quot;&gt;&lt;br&gt;&lt;/span&gt;&lt;/div&gt;&lt;div style=&quot;font-size: 12px;&quot;&gt;&lt;span style=&quot;font-size: 14px;&quot;&gt;∀&lt;/span&gt;&lt;span style=&quot;background-color: initial;&quot;&gt;&lt;font style=&quot;font-size: 14px;&quot;&gt;&amp;nbsp;&lt;/font&gt;&lt;/span&gt;&lt;font style=&quot;background-color: initial; font-size: 10px;&quot;&gt;V∈VS, Z&lt;/font&gt;&lt;span style=&quot;background-color: initial; font-size: 10px;&quot;&gt;∈&lt;/span&gt;&lt;font style=&quot;background-color: initial; font-size: 10px;&quot;&gt;ZS,&amp;nbsp;&lt;/font&gt;&lt;span style=&quot;background-color: initial; font-size: 10px;&quot;&gt;s&amp;nbsp;&lt;/span&gt;&lt;span style=&quot;background-color: initial; font-size: 10px;&quot;&gt;∈&amp;nbsp;S,&amp;nbsp;&lt;/span&gt;&lt;span style=&quot;background-color: initial;&quot;&gt;&lt;font style=&quot;font-size: 10px;&quot;&gt;time T&lt;sub&gt;N,&amp;nbsp;&lt;/sub&gt;&lt;/font&gt;&lt;/span&gt;&lt;font style=&quot;background-color: initial; font-size: 10px;&quot;&gt;time T&lt;sub&gt;V&lt;/sub&gt;,&lt;sub&gt;&amp;nbsp;&lt;/sub&gt;where ~&lt;/font&gt;&lt;font style=&quot;background-color: initial; font-size: 10px;&quot;&gt;vehicleV&lt;/font&gt;&lt;span style=&quot;background-color: initial;&quot;&gt;&lt;font style=&quot;font-size: 10px;&quot;&gt;iolatesZone(T&lt;sub&gt;P&lt;/sub&gt;, V,Z,T&lt;sub&gt;V&lt;/sub&gt;) :&lt;/font&gt;&lt;/span&gt;&lt;/div&gt;&lt;div style=&quot;font-size: 12px;&quot;&gt;&lt;span style=&quot;background-color: initial;&quot;&gt;&lt;font style=&quot;font-size: 10px;&quot;&gt;&amp;nbsp; &amp;nbsp; &amp;nbsp; &amp;nbsp; &amp;nbsp;~n&lt;/font&gt;&lt;/span&gt;&lt;font style=&quot;background-color: initial; font-size: 10px;&quot;&gt;otifiedByTime&lt;/font&gt;&lt;span style=&quot;background-color: initial; font-size: 10px;&quot;&gt;(s,&amp;nbsp;&lt;/span&gt;&lt;span style=&quot;background-color: initial; font-size: 10px;&quot;&gt;vehicleViolatesZone(T&lt;sub&gt;P&lt;/sub&gt;, V,Z,T&lt;sub&gt;V&lt;/sub&gt;&lt;/span&gt;&lt;span style=&quot;background-color: initial;&quot;&gt;&lt;font style=&quot;font-size: 10px;&quot;&gt;), T&lt;sub&gt;N&lt;/sub&gt;)&lt;/font&gt;&lt;/span&gt;&lt;span style=&quot;background-color: initial; font-size: 10px;&quot;&gt;&amp;nbsp;]&lt;/span&gt;&lt;/div&gt;&lt;/div&gt;&lt;/div&gt;" style="shape=step;perimeter=stepPerimeter;whiteSpace=wrap;html=1;fixedSize=1;spacing=40;" vertex="1" parent="EyGYqPtxOf0bMZwlp0L7-36">
          <mxGeometry x="750" y="365.6099999999999" width="660" height="260" as="geometry" />
        </mxCell>
        <mxCell id="EyGYqPtxOf0bMZwlp0L7-54" style="rounded=0;orthogonalLoop=1;jettySize=auto;html=1;exitX=1;exitY=0.544;exitDx=0;exitDy=0;entryX=0;entryY=0.5;entryDx=0;entryDy=0;spacing=10;endArrow=none;endFill=0;exitPerimeter=0;" edge="1" parent="EyGYqPtxOf0bMZwlp0L7-36" source="EyGYqPtxOf0bMZwlp0L7-37" target="EyGYqPtxOf0bMZwlp0L7-53">
          <mxGeometry relative="1" as="geometry">
            <mxPoint x="800" y="232.24" as="targetPoint" />
            <mxPoint x="710" y="241.24" as="sourcePoint" />
          </mxGeometry>
        </mxCell>
        <mxCell id="EyGYqPtxOf0bMZwlp0L7-55" value="All subscribers to the Violation Monitor Service are correctly maintained in NOBS" style="ellipse;whiteSpace=wrap;html=1;dashed=1;spacing=10;spacingLeft=20;spacingRight=20;" vertex="1" parent="EyGYqPtxOf0bMZwlp0L7-36">
          <mxGeometry x="387.5" width="232.5" height="83.12" as="geometry" />
        </mxCell>
        <mxCell id="EyGYqPtxOf0bMZwlp0L7-56" value="All awareness-required services shall subscribe to the Violation Monitor Service" style="ellipse;whiteSpace=wrap;html=1;dashed=1;spacing=10;spacingLeft=20;spacingRight=20;" vertex="1" parent="EyGYqPtxOf0bMZwlp0L7-36">
          <mxGeometry x="95" y="503.11999999999966" width="240" height="96.24" as="geometry" />
        </mxCell>
        <mxCell id="EyGYqPtxOf0bMZwlp0L7-57" value="" style="endArrow=none;dashed=1;html=1;dashPattern=1 3;strokeWidth=2;rounded=0;exitX=0.5;exitY=1;exitDx=0;exitDy=0;entryX=0.75;entryY=0;entryDx=0;entryDy=0;" edge="1" parent="EyGYqPtxOf0bMZwlp0L7-36" source="EyGYqPtxOf0bMZwlp0L7-55" target="EyGYqPtxOf0bMZwlp0L7-38">
          <mxGeometry width="50" height="50" relative="1" as="geometry">
            <mxPoint x="507.5" y="448.1199999999999" as="sourcePoint" />
            <mxPoint x="557.5" y="398.1199999999999" as="targetPoint" />
          </mxGeometry>
        </mxCell>
        <mxCell id="EyGYqPtxOf0bMZwlp0L7-58" value="" style="endArrow=none;dashed=1;html=1;dashPattern=1 3;strokeWidth=2;rounded=0;exitX=0.715;exitY=0.021;exitDx=0;exitDy=0;exitPerimeter=0;entryX=0.444;entryY=0.993;entryDx=0;entryDy=0;entryPerimeter=0;" edge="1" parent="EyGYqPtxOf0bMZwlp0L7-36" source="EyGYqPtxOf0bMZwlp0L7-56" target="EyGYqPtxOf0bMZwlp0L7-42">
          <mxGeometry width="50" height="50" relative="1" as="geometry">
            <mxPoint x="507.5" y="448.1199999999999" as="sourcePoint" />
            <mxPoint x="557.5" y="398.1199999999999" as="targetPoint" />
          </mxGeometry>
        </mxCell>
        <mxCell id="EyGYqPtxOf0bMZwlp0L7-59" value="Each subscriber shall specify in the subscription, the time window, T&lt;sub&gt;W&lt;/sub&gt;, to be applied to its desired monitoring so as to provide acceptable false positive and false negqatie imminent violation detection probabilities for the set of vehicles and zones defined." style="ellipse;whiteSpace=wrap;html=1;dashed=1;spacing=10;spacingLeft=20;spacingRight=20;fillColor=#f8cecc;strokeColor=#b85450;" vertex="1" parent="EyGYqPtxOf0bMZwlp0L7-36">
          <mxGeometry x="426.25" y="551.2399999999998" width="302.5" height="130" as="geometry" />
        </mxCell>
        <mxCell id="EyGYqPtxOf0bMZwlp0L7-60" value="" style="endArrow=none;dashed=1;html=1;dashPattern=1 3;strokeWidth=2;rounded=0;exitX=0;exitY=0;exitDx=0;exitDy=0;entryX=0.75;entryY=1;entryDx=0;entryDy=0;" edge="1" parent="EyGYqPtxOf0bMZwlp0L7-36" source="EyGYqPtxOf0bMZwlp0L7-59" target="EyGYqPtxOf0bMZwlp0L7-42">
          <mxGeometry width="50" height="50" relative="1" as="geometry">
            <mxPoint x="537.5" y="488.1199999999999" as="sourcePoint" />
            <mxPoint x="587.5" y="438.1199999999999" as="targetPoint" />
          </mxGeometry>
        </mxCell>
        <mxCell id="EyGYqPtxOf0bMZwlp0L7-61" value="Problem of Tuning TW for their subscription to have a rate of false pos and neg detections that still allows them to satisfy their function" style="ellipse;whiteSpace=wrap;html=1;spacingLeft=10;spacingBottom=10;spacingRight=10;spacingTop=10;strokeWidth=3;fillColor=#f8cecc;strokeColor=#b85450;spacing=20;" vertex="1" parent="EyGYqPtxOf0bMZwlp0L7-36">
          <mxGeometry x="445" y="448.11999999999966" width="265" height="85" as="geometry" />
        </mxCell>
        <mxCell id="EyGYqPtxOf0bMZwlp0L7-62" value="" style="endArrow=none;html=1;rounded=0;exitX=0.5;exitY=0;exitDx=0;exitDy=0;" edge="1" parent="EyGYqPtxOf0bMZwlp0L7-36" source="EyGYqPtxOf0bMZwlp0L7-59" target="EyGYqPtxOf0bMZwlp0L7-61">
          <mxGeometry width="50" height="50" relative="1" as="geometry">
            <mxPoint x="657.5" y="468.1199999999999" as="sourcePoint" />
            <mxPoint x="707.5" y="418.1199999999999" as="targetPoint" />
          </mxGeometry>
        </mxCell>
        <mxCell id="EyGYqPtxOf0bMZwlp0L7-63" value="" style="endArrow=none;html=1;rounded=0;exitX=1;exitY=0.75;exitDx=0;exitDy=0;entryX=0;entryY=0;entryDx=0;entryDy=0;" edge="1" parent="EyGYqPtxOf0bMZwlp0L7-36" source="EyGYqPtxOf0bMZwlp0L7-42" target="EyGYqPtxOf0bMZwlp0L7-61">
          <mxGeometry width="50" height="50" relative="1" as="geometry">
            <mxPoint x="657.5" y="468.1199999999999" as="sourcePoint" />
            <mxPoint x="707.5" y="418.1199999999999" as="targetPoint" />
          </mxGeometry>
        </mxCell>
        <mxCell id="EyGYqPtxOf0bMZwlp0L7-64" value="&lt;b&gt;Vehicle Config&lt;/b&gt;&lt;div&gt;&lt;b&gt;Decl.&lt;/b&gt;&lt;/div&gt;" style="rounded=0;whiteSpace=wrap;html=1;strokeColor=default;align=center;verticalAlign=middle;spacingLeft=10;spacingRight=10;spacingTop=10;spacingBottom=10;fontFamily=Helvetica;fontSize=12;fontColor=default;fillColor=default;" vertex="1" parent="EyGYqPtxOf0bMZwlp0L7-36">
          <mxGeometry x="10" y="148.1199999999999" width="70" height="38.13" as="geometry" />
        </mxCell>
        <mxCell id="EyGYqPtxOf0bMZwlp0L7-65" value="&lt;b&gt;Vehicle&lt;/b&gt;&lt;div&gt;&lt;b&gt;Pos/Vel&lt;/b&gt;&lt;/div&gt;&lt;div&gt;&lt;b&gt;Decl.&lt;/b&gt;&lt;/div&gt;" style="rounded=0;whiteSpace=wrap;html=1;strokeColor=default;align=center;verticalAlign=middle;spacingLeft=10;spacingRight=10;spacingTop=10;spacingBottom=10;fontFamily=Helvetica;fontSize=12;fontColor=default;fillColor=default;" vertex="1" parent="EyGYqPtxOf0bMZwlp0L7-36">
          <mxGeometry x="10" y="192.4799999999998" width="70" height="45.64" as="geometry" />
        </mxCell>
        <mxCell id="EyGYqPtxOf0bMZwlp0L7-66" value="&lt;b&gt;Zone Decl.&lt;/b&gt;" style="rounded=0;whiteSpace=wrap;html=1;strokeColor=default;align=center;verticalAlign=middle;spacingLeft=10;spacingRight=10;spacingTop=10;spacingBottom=10;fontFamily=Helvetica;fontSize=12;fontColor=default;fillColor=default;" vertex="1" parent="EyGYqPtxOf0bMZwlp0L7-36">
          <mxGeometry x="85" y="150.6099999999999" width="60" height="35.64" as="geometry" />
        </mxCell>
        <mxCell id="EyGYqPtxOf0bMZwlp0L7-67" value="&lt;b&gt;Zone&lt;/b&gt;&lt;div&gt;&lt;b&gt;Violation&lt;/b&gt;&lt;/div&gt;&lt;div&gt;&lt;b&gt;Alert&lt;/b&gt;&lt;/div&gt;" style="rounded=0;whiteSpace=wrap;html=1;strokeColor=default;align=center;verticalAlign=middle;spacingLeft=10;spacingRight=10;spacingTop=10;spacingBottom=10;fontFamily=Helvetica;fontSize=12;fontColor=default;fillColor=default;" vertex="1" parent="EyGYqPtxOf0bMZwlp0L7-36">
          <mxGeometry x="103.75" y="328.27" width="77.5" height="57.83" as="geometry" />
        </mxCell>
        <mxCell id="EyGYqPtxOf0bMZwlp0L7-68" value="&lt;b&gt;Imminent&lt;/b&gt;&lt;div&gt;&lt;b&gt;Zone&lt;/b&gt;&lt;/div&gt;&lt;div&gt;&lt;b&gt;Violation&lt;/b&gt;&lt;/div&gt;&lt;div&gt;&lt;b&gt;Alert&lt;/b&gt;&lt;/div&gt;" style="rounded=0;whiteSpace=wrap;html=1;strokeColor=default;align=center;verticalAlign=middle;spacingLeft=10;spacingRight=10;spacingTop=10;spacingBottom=10;fontFamily=Helvetica;fontSize=12;fontColor=default;fillColor=default;" vertex="1" parent="EyGYqPtxOf0bMZwlp0L7-36">
          <mxGeometry x="12.5" y="326.25" width="82.5" height="61.87" as="geometry" />
        </mxCell>
        <mxCell id="EyGYqPtxOf0bMZwlp0L7-69" value="&lt;b&gt;Imminent&lt;/b&gt;&lt;div&gt;&lt;b&gt;Zone&lt;/b&gt;&lt;/div&gt;&lt;div&gt;&lt;b&gt;Violation&lt;/b&gt;&lt;/div&gt;" style="rounded=0;whiteSpace=wrap;html=1;strokeColor=default;align=center;verticalAlign=middle;spacingLeft=10;spacingRight=10;spacingTop=10;spacingBottom=10;fontFamily=Helvetica;fontSize=12;fontColor=default;fillColor=default;" vertex="1" parent="EyGYqPtxOf0bMZwlp0L7-36">
          <mxGeometry x="167.5" y="196.24999999999977" width="70" height="43.13" as="geometry" />
        </mxCell>
        <mxCell id="EyGYqPtxOf0bMZwlp0L7-70" value="&lt;b&gt;Zone&lt;/b&gt;&lt;div&gt;&lt;b&gt;Violation&lt;/b&gt;&lt;/div&gt;" style="rounded=0;whiteSpace=wrap;html=1;strokeColor=default;align=center;verticalAlign=middle;spacingLeft=10;spacingRight=10;spacingTop=10;spacingBottom=10;fontFamily=Helvetica;fontSize=12;fontColor=default;fillColor=default;" vertex="1" parent="EyGYqPtxOf0bMZwlp0L7-36">
          <mxGeometry x="162.5" y="149.99" width="80" height="37.51" as="geometry" />
        </mxCell>
        <mxCell id="EyGYqPtxOf0bMZwlp0L7-71" value="&lt;b&gt;OpenUxAS&lt;/b&gt;&lt;div&gt;&lt;b&gt;Subscription&lt;/b&gt;&lt;/div&gt;" style="rounded=0;whiteSpace=wrap;html=1;strokeColor=default;align=center;verticalAlign=middle;spacingLeft=10;spacingRight=10;spacingTop=10;spacingBottom=10;fontFamily=Helvetica;fontSize=12;fontColor=default;fillColor=default;" vertex="1" parent="EyGYqPtxOf0bMZwlp0L7-36">
          <mxGeometry x="186.25" y="389.67999999999984" width="77.5" height="40.67" as="geometry" />
        </mxCell>
        <mxCell id="EyGYqPtxOf0bMZwlp0L7-72" value="&lt;b&gt;OpenUxAS&lt;/b&gt;&lt;div&gt;&lt;b&gt;Notification&lt;/b&gt;&lt;/div&gt;" style="rounded=0;whiteSpace=wrap;html=1;strokeColor=default;align=center;verticalAlign=middle;spacingLeft=10;spacingRight=10;spacingTop=10;spacingBottom=10;fontFamily=Helvetica;fontSize=12;fontColor=default;fillColor=default;" vertex="1" parent="EyGYqPtxOf0bMZwlp0L7-36">
          <mxGeometry x="186.25" y="341.2399999999998" width="77.5" height="38.45" as="geometry" />
        </mxCell>
        <mxCell id="EyGYqPtxOf0bMZwlp0L7-89" value="&lt;b&gt;Compromise: Probabilistic Detection / Non-detection&lt;/b&gt;&lt;div&gt;&lt;font style=&quot;font-size: 10px;&quot;&gt;probOfZoneViolationAtTime(V,Z,T&lt;sub&gt;V&lt;/sub&gt;,T&lt;sub&gt;R&lt;/sub&gt;)&amp;nbsp; &amp;gt;= P&lt;sub&gt;T&lt;/sub&gt;&amp;nbsp;--&amp;gt;&lt;/font&gt;&lt;/div&gt;&lt;div&gt;&lt;font style=&quot;font-size: 10px;&quot;&gt;&amp;nbsp; &amp;nbsp;detectZoneViolationAtTime(V,Z,T&lt;sub&gt;V&lt;/sub&gt;,T&lt;sub&gt;R&lt;/sub&gt;)&lt;/font&gt;&lt;/div&gt;&lt;div&gt;&lt;font style=&quot;font-size: 10px;&quot;&gt;&amp;amp;&amp;amp;&lt;/font&gt;&lt;/div&gt;&lt;div&gt;&lt;font style=&quot;font-size: 10px;&quot;&gt;probOfZoneViolationAtTime(V,Z,TV,TR) &amp;lt;= PF --&amp;gt;&lt;/font&gt;&lt;/div&gt;&lt;div&gt;&lt;font style=&quot;font-size: 10px;&quot;&gt;&amp;nbsp; &amp;nbsp;~detectZoneViolationAtTime(V,Z,T&lt;sub&gt;V&lt;/sub&gt;,T&lt;sub&gt;R&lt;/sub&gt;)&lt;/font&gt;&lt;/div&gt;" style="shape=trapezoid;perimeter=trapezoidPerimeter;whiteSpace=wrap;html=1;fixedSize=1;align=left;spacing=30;verticalAlign=top;" vertex="1" parent="1">
          <mxGeometry x="-1375" y="580" width="320" height="140" as="geometry" />
        </mxCell>
        <mxCell id="EyGYqPtxOf0bMZwlp0L7-90" value="" style="endArrow=none;html=1;rounded=0;exitX=0.5;exitY=0;exitDx=0;exitDy=0;entryX=0.5;entryY=1;entryDx=0;entryDy=0;shape=link;" edge="1" parent="1" source="EyGYqPtxOf0bMZwlp0L7-37" target="EyGYqPtxOf0bMZwlp0L7-89">
          <mxGeometry width="50" height="50" relative="1" as="geometry">
            <mxPoint x="-930" y="850" as="sourcePoint" />
            <mxPoint x="-1259" y="810" as="targetPoint" />
          </mxGeometry>
        </mxCell>
        <mxCell id="EyGYqPtxOf0bMZwlp0L7-91" value="" style="endArrow=none;html=1;rounded=0;exitX=0.5;exitY=0;exitDx=0;exitDy=0;entryX=0.5;entryY=1;entryDx=0;entryDy=0;shape=link;" edge="1" parent="1" source="EyGYqPtxOf0bMZwlp0L7-89" target="EyGYqPtxOf0bMZwlp0L7-30">
          <mxGeometry width="50" height="50" relative="1" as="geometry">
            <mxPoint x="-1249" y="988" as="sourcePoint" />
            <mxPoint x="-1247" y="780" as="targetPoint" />
          </mxGeometry>
        </mxCell>
      </root>
    </mxGraphModel>
  </diagram>
</mxfile>
